<?xml version="1.0" encoding="iso-8859-1"?>
<!-- Uploaded to: SVG Repo, www.svgrepo.com, Generator: SVG Repo Mixer Tools -->
<!DOCTYPE svg PUBLIC "-//W3C//DTD SVG 1.1//EN" "http://www.w3.org/Graphics/SVG/1.1/DTD/svg11.dtd">
<svg fill="#000000" height="800px" width="800px" version="1.1" id="Capa_1" xmlns="http://www.w3.org/2000/svg" xmlns:xlink="http://www.w3.org/1999/xlink" 
	 viewBox="0 0 492.999 492.999" xml:space="preserve">
<g>
	<path d="M462.914,39.659H30.085C13.496,39.659,0,53.155,0,69.745v353.51c0,16.589,13.496,30.085,30.085,30.085h432.83
		c16.589,0,30.085-13.496,30.085-30.085V69.745C492.999,53.155,479.503,39.659,462.914,39.659z M188.452,60.659h116.095v212.304
		l-53.796-23.824c-2.708-1.199-5.796-1.199-8.504,0l-53.795,23.824V60.659z M304.547,432.34H188.452v-69.82l58.047-25.707
		l58.048,25.707V432.34z M471.999,423.255c0,5.009-4.076,9.085-9.085,9.085H325.547v-76.653c0-4.154-2.45-7.919-6.248-9.601
		l-68.548-30.357c-2.708-1.199-5.796-1.199-8.504,0L173.7,346.086c-3.798,1.682-6.248,5.446-6.248,9.601v76.653H30.085
		c-5.009,0-9.085-4.076-9.085-9.085V69.745c0-5.01,4.076-9.085,9.085-9.085h137.367v228.438c0,3.552,1.795,6.863,4.772,8.8
		c2.977,1.937,6.731,2.239,9.98,0.8l64.295-28.474l64.296,28.474c1.36,0.602,2.808,0.899,4.251,0.899c2.004,0,3.997-0.573,5.728-1.7
		c2.977-1.938,4.772-5.249,4.772-8.8V60.659h137.367c5.009,0,9.085,4.076,9.085,9.085V423.255z"/>
	<path d="M132.903,87.154H66.317c-5.799,0-10.5,4.701-10.5,10.5v98.905c0,5.799,4.701,10.5,10.5,10.5h66.586
		c5.799,0,10.5-4.701,10.5-10.5V97.654C143.403,91.855,138.702,87.154,132.903,87.154z M122.403,186.058H76.817v-77.905h45.586
		V186.058z"/>
</g>
</svg>